<?xml version="1.0" encoding="UTF-8" standalone="no"?>
<!DOCTYPE svg PUBLIC "-//W3C//DTD SVG 1.1//EN"
 "http://www.w3.org/Graphics/SVG/1.1/DTD/svg11.dtd">
<!-- Generated by graphviz version 2.40.1 (20161225.0304)
 -->
<!-- Title: G Pages: 1 -->
<svg width="457pt" height="737pt"
 viewBox="0.00 0.00 343.00 553.00" xmlns="http://www.w3.org/2000/svg" xmlns:xlink="http://www.w3.org/1999/xlink">
<g id="graph0" class="graph" transform="scale(1.3333 1.3333) rotate(0) translate(4 549)">
<title>G</title>
<polygon fill="#ffffff" stroke="transparent" points="-4,4 -4,-549 339,-549 339,4 -4,4"/>
<!-- 140191768903440 -->
<g id="node1" class="node">
<title>140191768903440</title>
<polygon fill="none" stroke="#000000" points="36,-498.5 36,-544.5 299,-544.5 299,-498.5 36,-498.5"/>
<text text-anchor="middle" x="112" y="-517.8" font-family="Times,serif" font-size="14.00" fill="#000000">Sensor_data: InputLayer</text>
<polyline fill="none" stroke="#000000" points="188,-498.5 188,-544.5 "/>
<text text-anchor="middle" x="216" y="-529.3" font-family="Times,serif" font-size="14.00" fill="#000000">input:</text>
<polyline fill="none" stroke="#000000" points="188,-521.5 244,-521.5 "/>
<text text-anchor="middle" x="216" y="-506.3" font-family="Times,serif" font-size="14.00" fill="#000000">output:</text>
<polyline fill="none" stroke="#000000" points="244,-498.5 244,-544.5 "/>
<text text-anchor="middle" x="271.5" y="-529.3" font-family="Times,serif" font-size="14.00" fill="#000000">[(?, 8)]</text>
<polyline fill="none" stroke="#000000" points="244,-521.5 299,-521.5 "/>
<text text-anchor="middle" x="271.5" y="-506.3" font-family="Times,serif" font-size="14.00" fill="#000000">[(?, 8)]</text>
</g>
<!-- 140191681176720 -->
<g id="node2" class="node">
<title>140191681176720</title>
<polygon fill="none" stroke="#000000" points="0,-415.5 0,-461.5 335,-461.5 335,-415.5 0,-415.5"/>
<text text-anchor="middle" x="116.5" y="-434.8" font-family="Times,serif" font-size="14.00" fill="#000000">Preproprocessing: BatchNormalization</text>
<polyline fill="none" stroke="#000000" points="233,-415.5 233,-461.5 "/>
<text text-anchor="middle" x="261" y="-446.3" font-family="Times,serif" font-size="14.00" fill="#000000">input:</text>
<polyline fill="none" stroke="#000000" points="233,-438.5 289,-438.5 "/>
<text text-anchor="middle" x="261" y="-423.3" font-family="Times,serif" font-size="14.00" fill="#000000">output:</text>
<polyline fill="none" stroke="#000000" points="289,-415.5 289,-461.5 "/>
<text text-anchor="middle" x="312" y="-446.3" font-family="Times,serif" font-size="14.00" fill="#000000">(?, 8)</text>
<polyline fill="none" stroke="#000000" points="289,-438.5 335,-438.5 "/>
<text text-anchor="middle" x="312" y="-423.3" font-family="Times,serif" font-size="14.00" fill="#000000">(?, 8)</text>
</g>
<!-- 140191768903440&#45;&gt;140191681176720 -->
<g id="edge1" class="edge">
<title>140191768903440&#45;&gt;140191681176720</title>
<path fill="none" stroke="#000000" d="M167.5,-498.3799C167.5,-490.1745 167.5,-480.7679 167.5,-471.8786"/>
<polygon fill="#000000" stroke="#000000" points="171.0001,-471.784 167.5,-461.784 164.0001,-471.784 171.0001,-471.784"/>
</g>
<!-- 140189261077392 -->
<g id="node3" class="node">
<title>140189261077392</title>
<polygon fill="none" stroke="#000000" points="48,-332.5 48,-378.5 287,-378.5 287,-332.5 48,-332.5"/>
<text text-anchor="middle" x="116.5" y="-351.8" font-family="Times,serif" font-size="14.00" fill="#000000">Noise: GaussianNoise</text>
<polyline fill="none" stroke="#000000" points="185,-332.5 185,-378.5 "/>
<text text-anchor="middle" x="213" y="-363.3" font-family="Times,serif" font-size="14.00" fill="#000000">input:</text>
<polyline fill="none" stroke="#000000" points="185,-355.5 241,-355.5 "/>
<text text-anchor="middle" x="213" y="-340.3" font-family="Times,serif" font-size="14.00" fill="#000000">output:</text>
<polyline fill="none" stroke="#000000" points="241,-332.5 241,-378.5 "/>
<text text-anchor="middle" x="264" y="-363.3" font-family="Times,serif" font-size="14.00" fill="#000000">(?, 8)</text>
<polyline fill="none" stroke="#000000" points="241,-355.5 287,-355.5 "/>
<text text-anchor="middle" x="264" y="-340.3" font-family="Times,serif" font-size="14.00" fill="#000000">(?, 8)</text>
</g>
<!-- 140191681176720&#45;&gt;140189261077392 -->
<g id="edge2" class="edge">
<title>140191681176720&#45;&gt;140189261077392</title>
<path fill="none" stroke="#000000" d="M167.5,-415.3799C167.5,-407.1745 167.5,-397.7679 167.5,-388.8786"/>
<polygon fill="#000000" stroke="#000000" points="171.0001,-388.784 167.5,-378.784 164.0001,-388.784 171.0001,-388.784"/>
</g>
<!-- 140189355710864 -->
<g id="node4" class="node">
<title>140189355710864</title>
<polygon fill="none" stroke="#000000" points="62,-249.5 62,-295.5 273,-295.5 273,-249.5 62,-249.5"/>
<text text-anchor="middle" x="113" y="-268.8" font-family="Times,serif" font-size="14.00" fill="#000000">Layer_1: Dense</text>
<polyline fill="none" stroke="#000000" points="164,-249.5 164,-295.5 "/>
<text text-anchor="middle" x="192" y="-280.3" font-family="Times,serif" font-size="14.00" fill="#000000">input:</text>
<polyline fill="none" stroke="#000000" points="164,-272.5 220,-272.5 "/>
<text text-anchor="middle" x="192" y="-257.3" font-family="Times,serif" font-size="14.00" fill="#000000">output:</text>
<polyline fill="none" stroke="#000000" points="220,-249.5 220,-295.5 "/>
<text text-anchor="middle" x="246.5" y="-280.3" font-family="Times,serif" font-size="14.00" fill="#000000">(?, 8)</text>
<polyline fill="none" stroke="#000000" points="220,-272.5 273,-272.5 "/>
<text text-anchor="middle" x="246.5" y="-257.3" font-family="Times,serif" font-size="14.00" fill="#000000">(?, 64)</text>
</g>
<!-- 140189261077392&#45;&gt;140189355710864 -->
<g id="edge3" class="edge">
<title>140189261077392&#45;&gt;140189355710864</title>
<path fill="none" stroke="#000000" d="M167.5,-332.3799C167.5,-324.1745 167.5,-314.7679 167.5,-305.8786"/>
<polygon fill="#000000" stroke="#000000" points="171.0001,-305.784 167.5,-295.784 164.0001,-305.784 171.0001,-305.784"/>
</g>
<!-- 140191680056848 -->
<g id="node5" class="node">
<title>140191680056848</title>
<polygon fill="none" stroke="#000000" points="62,-166.5 62,-212.5 273,-212.5 273,-166.5 62,-166.5"/>
<text text-anchor="middle" x="113" y="-185.8" font-family="Times,serif" font-size="14.00" fill="#000000">Layer_2: Dense</text>
<polyline fill="none" stroke="#000000" points="164,-166.5 164,-212.5 "/>
<text text-anchor="middle" x="192" y="-197.3" font-family="Times,serif" font-size="14.00" fill="#000000">input:</text>
<polyline fill="none" stroke="#000000" points="164,-189.5 220,-189.5 "/>
<text text-anchor="middle" x="192" y="-174.3" font-family="Times,serif" font-size="14.00" fill="#000000">output:</text>
<polyline fill="none" stroke="#000000" points="220,-166.5 220,-212.5 "/>
<text text-anchor="middle" x="246.5" y="-197.3" font-family="Times,serif" font-size="14.00" fill="#000000">(?, 64)</text>
<polyline fill="none" stroke="#000000" points="220,-189.5 273,-189.5 "/>
<text text-anchor="middle" x="246.5" y="-174.3" font-family="Times,serif" font-size="14.00" fill="#000000">(?, 32)</text>
</g>
<!-- 140189355710864&#45;&gt;140191680056848 -->
<g id="edge4" class="edge">
<title>140189355710864&#45;&gt;140191680056848</title>
<path fill="none" stroke="#000000" d="M167.5,-249.3799C167.5,-241.1745 167.5,-231.7679 167.5,-222.8786"/>
<polygon fill="#000000" stroke="#000000" points="171.0001,-222.784 167.5,-212.784 164.0001,-222.784 171.0001,-222.784"/>
</g>
<!-- 140189225940688 -->
<g id="node6" class="node">
<title>140189225940688</title>
<polygon fill="none" stroke="#000000" points="62,-83.5 62,-129.5 273,-129.5 273,-83.5 62,-83.5"/>
<text text-anchor="middle" x="113" y="-102.8" font-family="Times,serif" font-size="14.00" fill="#000000">Layer_3: Dense</text>
<polyline fill="none" stroke="#000000" points="164,-83.5 164,-129.5 "/>
<text text-anchor="middle" x="192" y="-114.3" font-family="Times,serif" font-size="14.00" fill="#000000">input:</text>
<polyline fill="none" stroke="#000000" points="164,-106.5 220,-106.5 "/>
<text text-anchor="middle" x="192" y="-91.3" font-family="Times,serif" font-size="14.00" fill="#000000">output:</text>
<polyline fill="none" stroke="#000000" points="220,-83.5 220,-129.5 "/>
<text text-anchor="middle" x="246.5" y="-114.3" font-family="Times,serif" font-size="14.00" fill="#000000">(?, 32)</text>
<polyline fill="none" stroke="#000000" points="220,-106.5 273,-106.5 "/>
<text text-anchor="middle" x="246.5" y="-91.3" font-family="Times,serif" font-size="14.00" fill="#000000">(?, 32)</text>
</g>
<!-- 140191680056848&#45;&gt;140189225940688 -->
<g id="edge5" class="edge">
<title>140191680056848&#45;&gt;140189225940688</title>
<path fill="none" stroke="#000000" d="M167.5,-166.3799C167.5,-158.1745 167.5,-148.7679 167.5,-139.8786"/>
<polygon fill="#000000" stroke="#000000" points="171.0001,-139.784 167.5,-129.784 164.0001,-139.784 171.0001,-139.784"/>
</g>
<!-- 140189212293584 -->
<g id="node7" class="node">
<title>140189212293584</title>
<polygon fill="none" stroke="#000000" points="47.5,-.5 47.5,-46.5 287.5,-46.5 287.5,-.5 47.5,-.5"/>
<text text-anchor="middle" x="113" y="-19.8" font-family="Times,serif" font-size="14.00" fill="#000000">Output_layer: Dense</text>
<polyline fill="none" stroke="#000000" points="178.5,-.5 178.5,-46.5 "/>
<text text-anchor="middle" x="206.5" y="-31.3" font-family="Times,serif" font-size="14.00" fill="#000000">input:</text>
<polyline fill="none" stroke="#000000" points="178.5,-23.5 234.5,-23.5 "/>
<text text-anchor="middle" x="206.5" y="-8.3" font-family="Times,serif" font-size="14.00" fill="#000000">output:</text>
<polyline fill="none" stroke="#000000" points="234.5,-.5 234.5,-46.5 "/>
<text text-anchor="middle" x="261" y="-31.3" font-family="Times,serif" font-size="14.00" fill="#000000">(?, 32)</text>
<polyline fill="none" stroke="#000000" points="234.5,-23.5 287.5,-23.5 "/>
<text text-anchor="middle" x="261" y="-8.3" font-family="Times,serif" font-size="14.00" fill="#000000">(?, 4)</text>
</g>
<!-- 140189225940688&#45;&gt;140189212293584 -->
<g id="edge6" class="edge">
<title>140189225940688&#45;&gt;140189212293584</title>
<path fill="none" stroke="#000000" d="M167.5,-83.3799C167.5,-75.1745 167.5,-65.7679 167.5,-56.8786"/>
<polygon fill="#000000" stroke="#000000" points="171.0001,-56.784 167.5,-46.784 164.0001,-56.784 171.0001,-56.784"/>
</g>
</g>
</svg>
