<?xml version="1.0" encoding="UTF-8" standalone="no"?>
<!DOCTYPE svg PUBLIC "-//W3C//DTD SVG 1.1//EN"
 "http://www.w3.org/Graphics/SVG/1.1/DTD/svg11.dtd">
<!-- Generated by graphviz version 2.40.1 (20161225.0304)
 -->
<!-- Title: G Pages: 1 -->
<svg width="457pt" height="848pt"
 viewBox="0.00 0.00 343.00 636.00" xmlns="http://www.w3.org/2000/svg" xmlns:xlink="http://www.w3.org/1999/xlink">
<g id="graph0" class="graph" transform="scale(1.3333 1.3333) rotate(0) translate(4 632)">
<title>G</title>
<polygon fill="#ffffff" stroke="transparent" points="-4,4 -4,-632 339,-632 339,4 -4,4"/>
<!-- 140645580443600 -->
<g id="node1" class="node">
<title>140645580443600</title>
<polygon fill="none" stroke="#000000" points="36,-581.5 36,-627.5 299,-627.5 299,-581.5 36,-581.5"/>
<text text-anchor="middle" x="112" y="-600.8" font-family="Times,serif" font-size="14.00" fill="#000000">Sensor_data: InputLayer</text>
<polyline fill="none" stroke="#000000" points="188,-581.5 188,-627.5 "/>
<text text-anchor="middle" x="216" y="-612.3" font-family="Times,serif" font-size="14.00" fill="#000000">input:</text>
<polyline fill="none" stroke="#000000" points="188,-604.5 244,-604.5 "/>
<text text-anchor="middle" x="216" y="-589.3" font-family="Times,serif" font-size="14.00" fill="#000000">output:</text>
<polyline fill="none" stroke="#000000" points="244,-581.5 244,-627.5 "/>
<text text-anchor="middle" x="271.5" y="-612.3" font-family="Times,serif" font-size="14.00" fill="#000000">[(?, 8)]</text>
<polyline fill="none" stroke="#000000" points="244,-604.5 299,-604.5 "/>
<text text-anchor="middle" x="271.5" y="-589.3" font-family="Times,serif" font-size="14.00" fill="#000000">[(?, 8)]</text>
</g>
<!-- 140637096191888 -->
<g id="node2" class="node">
<title>140637096191888</title>
<polygon fill="none" stroke="#000000" points="0,-498.5 0,-544.5 335,-544.5 335,-498.5 0,-498.5"/>
<text text-anchor="middle" x="116.5" y="-517.8" font-family="Times,serif" font-size="14.00" fill="#000000">Preproprocessing: BatchNormalization</text>
<polyline fill="none" stroke="#000000" points="233,-498.5 233,-544.5 "/>
<text text-anchor="middle" x="261" y="-529.3" font-family="Times,serif" font-size="14.00" fill="#000000">input:</text>
<polyline fill="none" stroke="#000000" points="233,-521.5 289,-521.5 "/>
<text text-anchor="middle" x="261" y="-506.3" font-family="Times,serif" font-size="14.00" fill="#000000">output:</text>
<polyline fill="none" stroke="#000000" points="289,-498.5 289,-544.5 "/>
<text text-anchor="middle" x="312" y="-529.3" font-family="Times,serif" font-size="14.00" fill="#000000">(?, 8)</text>
<polyline fill="none" stroke="#000000" points="289,-521.5 335,-521.5 "/>
<text text-anchor="middle" x="312" y="-506.3" font-family="Times,serif" font-size="14.00" fill="#000000">(?, 8)</text>
</g>
<!-- 140645580443600&#45;&gt;140637096191888 -->
<g id="edge1" class="edge">
<title>140645580443600&#45;&gt;140637096191888</title>
<path fill="none" stroke="#000000" d="M167.5,-581.3799C167.5,-573.1745 167.5,-563.7679 167.5,-554.8786"/>
<polygon fill="#000000" stroke="#000000" points="171.0001,-554.784 167.5,-544.784 164.0001,-554.784 171.0001,-554.784"/>
</g>
<!-- 140641463824848 -->
<g id="node3" class="node">
<title>140641463824848</title>
<polygon fill="none" stroke="#000000" points="48,-415.5 48,-461.5 287,-461.5 287,-415.5 48,-415.5"/>
<text text-anchor="middle" x="116.5" y="-434.8" font-family="Times,serif" font-size="14.00" fill="#000000">Noise: GaussianNoise</text>
<polyline fill="none" stroke="#000000" points="185,-415.5 185,-461.5 "/>
<text text-anchor="middle" x="213" y="-446.3" font-family="Times,serif" font-size="14.00" fill="#000000">input:</text>
<polyline fill="none" stroke="#000000" points="185,-438.5 241,-438.5 "/>
<text text-anchor="middle" x="213" y="-423.3" font-family="Times,serif" font-size="14.00" fill="#000000">output:</text>
<polyline fill="none" stroke="#000000" points="241,-415.5 241,-461.5 "/>
<text text-anchor="middle" x="264" y="-446.3" font-family="Times,serif" font-size="14.00" fill="#000000">(?, 8)</text>
<polyline fill="none" stroke="#000000" points="241,-438.5 287,-438.5 "/>
<text text-anchor="middle" x="264" y="-423.3" font-family="Times,serif" font-size="14.00" fill="#000000">(?, 8)</text>
</g>
<!-- 140637096191888&#45;&gt;140641463824848 -->
<g id="edge2" class="edge">
<title>140637096191888&#45;&gt;140641463824848</title>
<path fill="none" stroke="#000000" d="M167.5,-498.3799C167.5,-490.1745 167.5,-480.7679 167.5,-471.8786"/>
<polygon fill="#000000" stroke="#000000" points="171.0001,-471.784 167.5,-461.784 164.0001,-471.784 171.0001,-471.784"/>
</g>
<!-- 140645483348752 -->
<g id="node4" class="node">
<title>140645483348752</title>
<polygon fill="none" stroke="#000000" points="59,-332.5 59,-378.5 276,-378.5 276,-332.5 59,-332.5"/>
<text text-anchor="middle" x="110" y="-351.8" font-family="Times,serif" font-size="14.00" fill="#000000">Layer_0: Dense</text>
<polyline fill="none" stroke="#000000" points="161,-332.5 161,-378.5 "/>
<text text-anchor="middle" x="189" y="-363.3" font-family="Times,serif" font-size="14.00" fill="#000000">input:</text>
<polyline fill="none" stroke="#000000" points="161,-355.5 217,-355.5 "/>
<text text-anchor="middle" x="189" y="-340.3" font-family="Times,serif" font-size="14.00" fill="#000000">output:</text>
<polyline fill="none" stroke="#000000" points="217,-332.5 217,-378.5 "/>
<text text-anchor="middle" x="246.5" y="-363.3" font-family="Times,serif" font-size="14.00" fill="#000000">(?, 8)</text>
<polyline fill="none" stroke="#000000" points="217,-355.5 276,-355.5 "/>
<text text-anchor="middle" x="246.5" y="-340.3" font-family="Times,serif" font-size="14.00" fill="#000000">(?, 512)</text>
</g>
<!-- 140641463824848&#45;&gt;140645483348752 -->
<g id="edge3" class="edge">
<title>140641463824848&#45;&gt;140645483348752</title>
<path fill="none" stroke="#000000" d="M167.5,-415.3799C167.5,-407.1745 167.5,-397.7679 167.5,-388.8786"/>
<polygon fill="#000000" stroke="#000000" points="171.0001,-388.784 167.5,-378.784 164.0001,-388.784 171.0001,-388.784"/>
</g>
<!-- 140641459623888 -->
<g id="node5" class="node">
<title>140641459623888</title>
<polygon fill="none" stroke="#000000" points="59,-249.5 59,-295.5 276,-295.5 276,-249.5 59,-249.5"/>
<text text-anchor="middle" x="110" y="-268.8" font-family="Times,serif" font-size="14.00" fill="#000000">Layer_1: Dense</text>
<polyline fill="none" stroke="#000000" points="161,-249.5 161,-295.5 "/>
<text text-anchor="middle" x="189" y="-280.3" font-family="Times,serif" font-size="14.00" fill="#000000">input:</text>
<polyline fill="none" stroke="#000000" points="161,-272.5 217,-272.5 "/>
<text text-anchor="middle" x="189" y="-257.3" font-family="Times,serif" font-size="14.00" fill="#000000">output:</text>
<polyline fill="none" stroke="#000000" points="217,-249.5 217,-295.5 "/>
<text text-anchor="middle" x="246.5" y="-280.3" font-family="Times,serif" font-size="14.00" fill="#000000">(?, 512)</text>
<polyline fill="none" stroke="#000000" points="217,-272.5 276,-272.5 "/>
<text text-anchor="middle" x="246.5" y="-257.3" font-family="Times,serif" font-size="14.00" fill="#000000">(?, 256)</text>
</g>
<!-- 140645483348752&#45;&gt;140641459623888 -->
<g id="edge4" class="edge">
<title>140645483348752&#45;&gt;140641459623888</title>
<path fill="none" stroke="#000000" d="M167.5,-332.3799C167.5,-324.1745 167.5,-314.7679 167.5,-305.8786"/>
<polygon fill="#000000" stroke="#000000" points="171.0001,-305.784 167.5,-295.784 164.0001,-305.784 171.0001,-305.784"/>
</g>
<!-- 140641463804944 -->
<g id="node6" class="node">
<title>140641463804944</title>
<polygon fill="none" stroke="#000000" points="59,-166.5 59,-212.5 276,-212.5 276,-166.5 59,-166.5"/>
<text text-anchor="middle" x="110" y="-185.8" font-family="Times,serif" font-size="14.00" fill="#000000">Layer_2: Dense</text>
<polyline fill="none" stroke="#000000" points="161,-166.5 161,-212.5 "/>
<text text-anchor="middle" x="189" y="-197.3" font-family="Times,serif" font-size="14.00" fill="#000000">input:</text>
<polyline fill="none" stroke="#000000" points="161,-189.5 217,-189.5 "/>
<text text-anchor="middle" x="189" y="-174.3" font-family="Times,serif" font-size="14.00" fill="#000000">output:</text>
<polyline fill="none" stroke="#000000" points="217,-166.5 217,-212.5 "/>
<text text-anchor="middle" x="246.5" y="-197.3" font-family="Times,serif" font-size="14.00" fill="#000000">(?, 256)</text>
<polyline fill="none" stroke="#000000" points="217,-189.5 276,-189.5 "/>
<text text-anchor="middle" x="246.5" y="-174.3" font-family="Times,serif" font-size="14.00" fill="#000000">(?, 128)</text>
</g>
<!-- 140641459623888&#45;&gt;140641463804944 -->
<g id="edge5" class="edge">
<title>140641459623888&#45;&gt;140641463804944</title>
<path fill="none" stroke="#000000" d="M167.5,-249.3799C167.5,-241.1745 167.5,-231.7679 167.5,-222.8786"/>
<polygon fill="#000000" stroke="#000000" points="171.0001,-222.784 167.5,-212.784 164.0001,-222.784 171.0001,-222.784"/>
</g>
<!-- 140641469924432 -->
<g id="node7" class="node">
<title>140641469924432</title>
<polygon fill="none" stroke="#000000" points="59,-83.5 59,-129.5 276,-129.5 276,-83.5 59,-83.5"/>
<text text-anchor="middle" x="110" y="-102.8" font-family="Times,serif" font-size="14.00" fill="#000000">Layer_3: Dense</text>
<polyline fill="none" stroke="#000000" points="161,-83.5 161,-129.5 "/>
<text text-anchor="middle" x="189" y="-114.3" font-family="Times,serif" font-size="14.00" fill="#000000">input:</text>
<polyline fill="none" stroke="#000000" points="161,-106.5 217,-106.5 "/>
<text text-anchor="middle" x="189" y="-91.3" font-family="Times,serif" font-size="14.00" fill="#000000">output:</text>
<polyline fill="none" stroke="#000000" points="217,-83.5 217,-129.5 "/>
<text text-anchor="middle" x="246.5" y="-114.3" font-family="Times,serif" font-size="14.00" fill="#000000">(?, 128)</text>
<polyline fill="none" stroke="#000000" points="217,-106.5 276,-106.5 "/>
<text text-anchor="middle" x="246.5" y="-91.3" font-family="Times,serif" font-size="14.00" fill="#000000">(?, 64)</text>
</g>
<!-- 140641463804944&#45;&gt;140641469924432 -->
<g id="edge6" class="edge">
<title>140641463804944&#45;&gt;140641469924432</title>
<path fill="none" stroke="#000000" d="M167.5,-166.3799C167.5,-158.1745 167.5,-148.7679 167.5,-139.8786"/>
<polygon fill="#000000" stroke="#000000" points="171.0001,-139.784 167.5,-129.784 164.0001,-139.784 171.0001,-139.784"/>
</g>
<!-- 140641463880592 -->
<g id="node8" class="node">
<title>140641463880592</title>
<polygon fill="none" stroke="#000000" points="47.5,-.5 47.5,-46.5 287.5,-46.5 287.5,-.5 47.5,-.5"/>
<text text-anchor="middle" x="113" y="-19.8" font-family="Times,serif" font-size="14.00" fill="#000000">Output_layer: Dense</text>
<polyline fill="none" stroke="#000000" points="178.5,-.5 178.5,-46.5 "/>
<text text-anchor="middle" x="206.5" y="-31.3" font-family="Times,serif" font-size="14.00" fill="#000000">input:</text>
<polyline fill="none" stroke="#000000" points="178.5,-23.5 234.5,-23.5 "/>
<text text-anchor="middle" x="206.5" y="-8.3" font-family="Times,serif" font-size="14.00" fill="#000000">output:</text>
<polyline fill="none" stroke="#000000" points="234.5,-.5 234.5,-46.5 "/>
<text text-anchor="middle" x="261" y="-31.3" font-family="Times,serif" font-size="14.00" fill="#000000">(?, 64)</text>
<polyline fill="none" stroke="#000000" points="234.5,-23.5 287.5,-23.5 "/>
<text text-anchor="middle" x="261" y="-8.3" font-family="Times,serif" font-size="14.00" fill="#000000">(?, 4)</text>
</g>
<!-- 140641469924432&#45;&gt;140641463880592 -->
<g id="edge7" class="edge">
<title>140641469924432&#45;&gt;140641463880592</title>
<path fill="none" stroke="#000000" d="M167.5,-83.3799C167.5,-75.1745 167.5,-65.7679 167.5,-56.8786"/>
<polygon fill="#000000" stroke="#000000" points="171.0001,-56.784 167.5,-46.784 164.0001,-56.784 171.0001,-56.784"/>
</g>
</g>
</svg>
