<?xml version="1.0" encoding="UTF-8" standalone="no"?>
<!DOCTYPE svg PUBLIC "-//W3C//DTD SVG 1.1//EN"
 "http://www.w3.org/Graphics/SVG/1.1/DTD/svg11.dtd">
<!-- Generated by graphviz version 2.40.1 (20161225.0304)
 -->
<!-- Title: G Pages: 1 -->
<svg width="457pt" height="737pt"
 viewBox="0.00 0.00 343.00 553.00" xmlns="http://www.w3.org/2000/svg" xmlns:xlink="http://www.w3.org/1999/xlink">
<g id="graph0" class="graph" transform="scale(1.3333 1.3333) rotate(0) translate(4 549)">
<title>G</title>
<polygon fill="#ffffff" stroke="transparent" points="-4,4 -4,-549 339,-549 339,4 -4,4"/>
<!-- 140602120756880 -->
<g id="node1" class="node">
<title>140602120756880</title>
<polygon fill="none" stroke="#000000" points="36,-498.5 36,-544.5 299,-544.5 299,-498.5 36,-498.5"/>
<text text-anchor="middle" x="112" y="-517.8" font-family="Times,serif" font-size="14.00" fill="#000000">Sensor_data: InputLayer</text>
<polyline fill="none" stroke="#000000" points="188,-498.5 188,-544.5 "/>
<text text-anchor="middle" x="216" y="-529.3" font-family="Times,serif" font-size="14.00" fill="#000000">input:</text>
<polyline fill="none" stroke="#000000" points="188,-521.5 244,-521.5 "/>
<text text-anchor="middle" x="216" y="-506.3" font-family="Times,serif" font-size="14.00" fill="#000000">output:</text>
<polyline fill="none" stroke="#000000" points="244,-498.5 244,-544.5 "/>
<text text-anchor="middle" x="271.5" y="-529.3" font-family="Times,serif" font-size="14.00" fill="#000000">[(?, 8)]</text>
<polyline fill="none" stroke="#000000" points="244,-521.5 299,-521.5 "/>
<text text-anchor="middle" x="271.5" y="-506.3" font-family="Times,serif" font-size="14.00" fill="#000000">[(?, 8)]</text>
</g>
<!-- 140602114518352 -->
<g id="node2" class="node">
<title>140602114518352</title>
<polygon fill="none" stroke="#000000" points="0,-415.5 0,-461.5 335,-461.5 335,-415.5 0,-415.5"/>
<text text-anchor="middle" x="116.5" y="-434.8" font-family="Times,serif" font-size="14.00" fill="#000000">Preproprocessing: BatchNormalization</text>
<polyline fill="none" stroke="#000000" points="233,-415.5 233,-461.5 "/>
<text text-anchor="middle" x="261" y="-446.3" font-family="Times,serif" font-size="14.00" fill="#000000">input:</text>
<polyline fill="none" stroke="#000000" points="233,-438.5 289,-438.5 "/>
<text text-anchor="middle" x="261" y="-423.3" font-family="Times,serif" font-size="14.00" fill="#000000">output:</text>
<polyline fill="none" stroke="#000000" points="289,-415.5 289,-461.5 "/>
<text text-anchor="middle" x="312" y="-446.3" font-family="Times,serif" font-size="14.00" fill="#000000">(?, 8)</text>
<polyline fill="none" stroke="#000000" points="289,-438.5 335,-438.5 "/>
<text text-anchor="middle" x="312" y="-423.3" font-family="Times,serif" font-size="14.00" fill="#000000">(?, 8)</text>
</g>
<!-- 140602120756880&#45;&gt;140602114518352 -->
<g id="edge1" class="edge">
<title>140602120756880&#45;&gt;140602114518352</title>
<path fill="none" stroke="#000000" d="M167.5,-498.3799C167.5,-490.1745 167.5,-480.7679 167.5,-471.8786"/>
<polygon fill="#000000" stroke="#000000" points="171.0001,-471.784 167.5,-461.784 164.0001,-471.784 171.0001,-471.784"/>
</g>
<!-- 140598143771536 -->
<g id="node3" class="node">
<title>140598143771536</title>
<polygon fill="none" stroke="#000000" points="48,-332.5 48,-378.5 287,-378.5 287,-332.5 48,-332.5"/>
<text text-anchor="middle" x="116.5" y="-351.8" font-family="Times,serif" font-size="14.00" fill="#000000">Noise: GaussianNoise</text>
<polyline fill="none" stroke="#000000" points="185,-332.5 185,-378.5 "/>
<text text-anchor="middle" x="213" y="-363.3" font-family="Times,serif" font-size="14.00" fill="#000000">input:</text>
<polyline fill="none" stroke="#000000" points="185,-355.5 241,-355.5 "/>
<text text-anchor="middle" x="213" y="-340.3" font-family="Times,serif" font-size="14.00" fill="#000000">output:</text>
<polyline fill="none" stroke="#000000" points="241,-332.5 241,-378.5 "/>
<text text-anchor="middle" x="264" y="-363.3" font-family="Times,serif" font-size="14.00" fill="#000000">(?, 8)</text>
<polyline fill="none" stroke="#000000" points="241,-355.5 287,-355.5 "/>
<text text-anchor="middle" x="264" y="-340.3" font-family="Times,serif" font-size="14.00" fill="#000000">(?, 8)</text>
</g>
<!-- 140602114518352&#45;&gt;140598143771536 -->
<g id="edge2" class="edge">
<title>140602114518352&#45;&gt;140598143771536</title>
<path fill="none" stroke="#000000" d="M167.5,-415.3799C167.5,-407.1745 167.5,-397.7679 167.5,-388.8786"/>
<polygon fill="#000000" stroke="#000000" points="171.0001,-388.784 167.5,-378.784 164.0001,-388.784 171.0001,-388.784"/>
</g>
<!-- 140598143611344 -->
<g id="node4" class="node">
<title>140598143611344</title>
<polygon fill="none" stroke="#000000" points="55.5,-249.5 55.5,-295.5 279.5,-295.5 279.5,-249.5 55.5,-249.5"/>
<text text-anchor="middle" x="106.5" y="-268.8" font-family="Times,serif" font-size="14.00" fill="#000000">Layer_1: Dense</text>
<polyline fill="none" stroke="#000000" points="157.5,-249.5 157.5,-295.5 "/>
<text text-anchor="middle" x="185.5" y="-280.3" font-family="Times,serif" font-size="14.00" fill="#000000">input:</text>
<polyline fill="none" stroke="#000000" points="157.5,-272.5 213.5,-272.5 "/>
<text text-anchor="middle" x="185.5" y="-257.3" font-family="Times,serif" font-size="14.00" fill="#000000">output:</text>
<polyline fill="none" stroke="#000000" points="213.5,-249.5 213.5,-295.5 "/>
<text text-anchor="middle" x="246.5" y="-280.3" font-family="Times,serif" font-size="14.00" fill="#000000">(?, 8)</text>
<polyline fill="none" stroke="#000000" points="213.5,-272.5 279.5,-272.5 "/>
<text text-anchor="middle" x="246.5" y="-257.3" font-family="Times,serif" font-size="14.00" fill="#000000">(?, 1024)</text>
</g>
<!-- 140598143771536&#45;&gt;140598143611344 -->
<g id="edge3" class="edge">
<title>140598143771536&#45;&gt;140598143611344</title>
<path fill="none" stroke="#000000" d="M167.5,-332.3799C167.5,-324.1745 167.5,-314.7679 167.5,-305.8786"/>
<polygon fill="#000000" stroke="#000000" points="171.0001,-305.784 167.5,-295.784 164.0001,-305.784 171.0001,-305.784"/>
</g>
<!-- 140598104729168 -->
<g id="node5" class="node">
<title>140598104729168</title>
<polygon fill="none" stroke="#000000" points="55.5,-166.5 55.5,-212.5 279.5,-212.5 279.5,-166.5 55.5,-166.5"/>
<text text-anchor="middle" x="106.5" y="-185.8" font-family="Times,serif" font-size="14.00" fill="#000000">Layer_2: Dense</text>
<polyline fill="none" stroke="#000000" points="157.5,-166.5 157.5,-212.5 "/>
<text text-anchor="middle" x="185.5" y="-197.3" font-family="Times,serif" font-size="14.00" fill="#000000">input:</text>
<polyline fill="none" stroke="#000000" points="157.5,-189.5 213.5,-189.5 "/>
<text text-anchor="middle" x="185.5" y="-174.3" font-family="Times,serif" font-size="14.00" fill="#000000">output:</text>
<polyline fill="none" stroke="#000000" points="213.5,-166.5 213.5,-212.5 "/>
<text text-anchor="middle" x="246.5" y="-197.3" font-family="Times,serif" font-size="14.00" fill="#000000">(?, 1024)</text>
<polyline fill="none" stroke="#000000" points="213.5,-189.5 279.5,-189.5 "/>
<text text-anchor="middle" x="246.5" y="-174.3" font-family="Times,serif" font-size="14.00" fill="#000000">(?, 512)</text>
</g>
<!-- 140598143611344&#45;&gt;140598104729168 -->
<g id="edge4" class="edge">
<title>140598143611344&#45;&gt;140598104729168</title>
<path fill="none" stroke="#000000" d="M167.5,-249.3799C167.5,-241.1745 167.5,-231.7679 167.5,-222.8786"/>
<polygon fill="#000000" stroke="#000000" points="171.0001,-222.784 167.5,-212.784 164.0001,-222.784 171.0001,-222.784"/>
</g>
<!-- 140598142346704 -->
<g id="node6" class="node">
<title>140598142346704</title>
<polygon fill="none" stroke="#000000" points="59,-83.5 59,-129.5 276,-129.5 276,-83.5 59,-83.5"/>
<text text-anchor="middle" x="110" y="-102.8" font-family="Times,serif" font-size="14.00" fill="#000000">Layer_3: Dense</text>
<polyline fill="none" stroke="#000000" points="161,-83.5 161,-129.5 "/>
<text text-anchor="middle" x="189" y="-114.3" font-family="Times,serif" font-size="14.00" fill="#000000">input:</text>
<polyline fill="none" stroke="#000000" points="161,-106.5 217,-106.5 "/>
<text text-anchor="middle" x="189" y="-91.3" font-family="Times,serif" font-size="14.00" fill="#000000">output:</text>
<polyline fill="none" stroke="#000000" points="217,-83.5 217,-129.5 "/>
<text text-anchor="middle" x="246.5" y="-114.3" font-family="Times,serif" font-size="14.00" fill="#000000">(?, 512)</text>
<polyline fill="none" stroke="#000000" points="217,-106.5 276,-106.5 "/>
<text text-anchor="middle" x="246.5" y="-91.3" font-family="Times,serif" font-size="14.00" fill="#000000">(?, 256)</text>
</g>
<!-- 140598104729168&#45;&gt;140598142346704 -->
<g id="edge5" class="edge">
<title>140598104729168&#45;&gt;140598142346704</title>
<path fill="none" stroke="#000000" d="M167.5,-166.3799C167.5,-158.1745 167.5,-148.7679 167.5,-139.8786"/>
<polygon fill="#000000" stroke="#000000" points="171.0001,-139.784 167.5,-129.784 164.0001,-139.784 171.0001,-139.784"/>
</g>
<!-- 140602113874896 -->
<g id="node7" class="node">
<title>140602113874896</title>
<polygon fill="none" stroke="#000000" points="44.5,-.5 44.5,-46.5 290.5,-46.5 290.5,-.5 44.5,-.5"/>
<text text-anchor="middle" x="110" y="-19.8" font-family="Times,serif" font-size="14.00" fill="#000000">Output_layer: Dense</text>
<polyline fill="none" stroke="#000000" points="175.5,-.5 175.5,-46.5 "/>
<text text-anchor="middle" x="203.5" y="-31.3" font-family="Times,serif" font-size="14.00" fill="#000000">input:</text>
<polyline fill="none" stroke="#000000" points="175.5,-23.5 231.5,-23.5 "/>
<text text-anchor="middle" x="203.5" y="-8.3" font-family="Times,serif" font-size="14.00" fill="#000000">output:</text>
<polyline fill="none" stroke="#000000" points="231.5,-.5 231.5,-46.5 "/>
<text text-anchor="middle" x="261" y="-31.3" font-family="Times,serif" font-size="14.00" fill="#000000">(?, 256)</text>
<polyline fill="none" stroke="#000000" points="231.5,-23.5 290.5,-23.5 "/>
<text text-anchor="middle" x="261" y="-8.3" font-family="Times,serif" font-size="14.00" fill="#000000">(?, 4)</text>
</g>
<!-- 140598142346704&#45;&gt;140602113874896 -->
<g id="edge6" class="edge">
<title>140598142346704&#45;&gt;140602113874896</title>
<path fill="none" stroke="#000000" d="M167.5,-83.3799C167.5,-75.1745 167.5,-65.7679 167.5,-56.8786"/>
<polygon fill="#000000" stroke="#000000" points="171.0001,-56.784 167.5,-46.784 164.0001,-56.784 171.0001,-56.784"/>
</g>
</g>
</svg>
